<?xml version="1.0" encoding="UTF-8"?>
<svg id="Layer_1" xmlns="http://www.w3.org/2000/svg" version="1.1" viewBox="0 0 300 300">
  <!-- Generator: Adobe Illustrator 29.4.0, SVG Export Plug-In . SVG Version: 2.1.0 Build 152)  -->
  <defs>
    <style>
      .st0 {
        fill: #e96f24;
      }
    </style>
  </defs>
  <path class="st0" d="M260.4,193.8l-7.7,66.9c-1.4,6-5.7,10.2-11.4,12.5H58.7c-5.5-2.1-9.8-6.6-11.6-12.2l-7.4-67.1h220.7ZM91,207.6v41.8c0,3.8,10.7,3.8,10.7,0v-41.8c0-3.1-9.1-5.5-10.7,0ZM144.7,207.6v41.8c0,3.8,10.7,3.8,10.7,0v-41.8c0-3.1-9.1-5.5-10.7,0ZM198.4,207.6v41.8c0,3.8,10.7,3.8,10.7,0v-41.8c0-3.1-9.1-5.5-10.7,0Z"/>
  <path class="st0" d="M270.8,179.1c-1,1-2.8,1.8-4.1,2.4l-231.2.4c-11.1-.7-10.1-20.1-8.8-28s5.3-8.8,10-9h227.9c12.3.4,10.8,29.3,6.2,34.3Z"/>
  <path class="st0" d="M262.8,134.2h-64.4v-43h51.9c3,0,12.5,9.5,12.5,12.5v30.4ZM212.1,102c-4.5,1.6-3.1,10.7,0,10.7h26.3c3.8,0,3.8-10.7,0-10.7h-26.3Z"/>
  <path class="st0" d="M187.6,134.2h-43v-4.8c31.9,2.9,26.2-16.1-2.2-12.1-5-15.5-15.3-27.7-29.4-35.6-5.7-27.5,9.4-57.2,40.4-54.7,15,1.2,34.2,17,34.2,32.7v74.6ZM139.6,64c-4.6,1-7.8,5.5-3.9,9.4,3.5,3.4,27.5,4.7,30.3-2.1,2.8-9.7-20.9-8.5-26.4-7.3ZM147.9,91.5c-.9.3-1.6.8-2.1,1.4-1.6,2-1.6,5.3,0,7.4,5.4,2.8,23.3,4.5,20.2-5.8-1.3-4.4-14.4-4.1-18.1-3Z"/>
  <path class="st0" d="M37.3,134.2c0-17.8,10-33.5,25.1-42.4-4.8-5.5-10.5-10.6-12.6-17.8-2.3-7.8-3.8-19.3-1.5-27.3.9-3.2,3.6-3,6.3-3.3,26.1-2.7,39.6,19.1,36.5,43,24.4,2.3,42.5,23.5,42.9,47.8H37.3ZM90.6,96.2c-2.3.4-4.3,2.4-5.1,4.5-.5,8.8,8.6,5.8,13.8,9,5.3,3.3,7.6,12.1,9.6,13.1,3.8,1.9,7.5.2,8.2-3.9,1.7-10.2-16.5-24.2-26.4-22.7Z"/>
</svg>