<?xml version="1.0" encoding="UTF-8"?>
<svg id="Layer_1" xmlns="http://www.w3.org/2000/svg" version="1.1" viewBox="0 0 300 300">
  <!-- Generator: Adobe Illustrator 29.4.0, SVG Export Plug-In . SVG Version: 2.1.0 Build 152)  -->
  <defs>
    <style>
      .st0 {
        fill: #e96f24;
      }
    </style>
  </defs>
  <path class="st0" d="M297.8,32.5v185.3l-80.5,30-61.3-57,17-18.4c10.4,3.5,19.8,2.6,28.3-4.6l41.4-49.3-.6-1.9-42.1,42c-3.3-2.2-1.5-4,0-6.5,6.3-9.5,20.8-22,28.8-31.6,2.8-3.4,7-7.8,8.5-11.8l-45.3,42-1.3-3.9,40.1-43.3c-3.6,1-7.6,4.8-10.5,7.2-10.4,8.7-20.4,19.9-30.9,28.2s-6.5,5.8-7.2,2l41.4-44-50,40.7c-4.1,4.5-8.4,13-8.2,19.1s3.2,7.8,1.8,11.1-15.7,15.9-17.1,15.9l-21.5-18.9c14-23.7-4.2-45.1-25.1-55.5-82.5-40.8-33.1,94.5,19.7,61.7l18.3,19.8-61,56.7L2.2,217.8V32.5c2-2.4,4.2-5.7,7.9-4.7l139.9,50.1,139.9-50.1c3.7-1,5.9,2.3,7.9,4.7Z"/>
  <polygon class="st0" points="151.8 199.6 200 254.6 150 272.4 98.1 254.6 147.3 200.6 151.8 199.6"/>
</svg>