<?xml version="1.0" encoding="UTF-8"?>
<svg id="Layer_1" xmlns="http://www.w3.org/2000/svg" version="1.1" viewBox="0 0 300 300">
  <!-- Generator: Adobe Illustrator 29.4.0, SVG Export Plug-In . SVG Version: 2.1.0 Build 152)  -->
  <defs>
    <style>
      .st0 {
        fill: #e96f24;
      }
    </style>
  </defs>
  <path class="st0" d="M124.6,134.2c1.4-.2,2.4-.2,3.4,1l23.2,27.1,24.8-28c30.7,10.2,49.5,54.6,44.5,85.1s-18.5,20.3-26.1,24.2c-29.7,15.1-69.8,13-96.9-6.6-15.5-11.2-17-16.7-15.6-36,1.7-22.8,14.3-48.2,33.3-61.2,2.2-1.5,7-5.1,9.4-5.5Z"/>
  <ellipse class="st0" cx="150.8" cy="86.2" rx="39.6" ry="39.6"/>
  <path class="st0" d="M288.1,162.2v16c-4,13.2-20.3,23.3-32.8,27.9s-13.2,3.8-19.9,5.2c-.5-35.6-15.8-69-46.6-87.8,6.2-4.8,9.1-11.6,12.1-18.5s-.7-2.1,1.9-1.7l20.9,24.5c3.4-3.5,21-26.9,24-26.5,17.4,8.2,29.8,24.6,36.1,42.5l4.3,18.4Z"/>
  <path class="st0" d="M12.1,162.2c.5-5.2,3.1-15.2,4.9-20.3,5.8-16.8,19.5-32.9,35.6-40.6l24,26.5c6.4-7,11.9-15.1,18.4-22.1.9-1,4.2-4.9,5.5-3.7,1.1,9,7.9,15.3,12.3,22.7-20.3,12.1-34.6,32.2-40.8,54.9s-4.7,21.4-3.4,31.6c-21.7-1.9-46.5-11.7-56.4-31.9.4-5.6-.6-11.7,0-17.2Z"/>
  <ellipse class="st0" cx="75.5" cy="75.2" rx="25.8" ry="25.8"/>
  <ellipse class="st0" cx="223.9" cy="75.2" rx="25.8" ry="25.8"/>
</svg>