<?xml version="1.0" encoding="UTF-8"?>
<svg id="Layer_1" xmlns="http://www.w3.org/2000/svg" version="1.1" viewBox="0 0 300 300">
  <!-- Generator: Adobe Illustrator 29.4.0, SVG Export Plug-In . SVG Version: 2.1.0 Build 152)  -->
  <defs>
    <style>
      .st0 {
        fill: #e96f24;
      }
    </style>
  </defs>
  <path class="st0" d="M44.3,119.3l112-39.6,4,144.4-18.5-5.5c-24.4,25.9-65.1,12.1-72.2-21.7l-22.6-6.8c-3.8-2.6-4.4-62.1-2.7-70.8ZM165.8,58.5l3.9,183.5,25.4-.5-3.9-183.5-25.4.5ZM7.3,187.2c5.6-1.9,23.3,1.3,26.1-2.9v-60.9s-27.4-1.2-27.4-1.2l1.3,65Z"/>
  <rect class="st0" x="220.4" y="143" width="69.9" height="17.8"/>
  <g>
    <rect class="st0" x="217.9" y="82.5" width="76.8" height="17.8" transform="translate(-11.3 140.4) rotate(-30)"/>
    <rect class="st0" x="217.9" y="203.5" width="76.8" height="17.8" transform="translate(140.6 -99.7) rotate(30)"/>
  </g>
</svg>