<?xml version="1.0" encoding="UTF-8"?>
<svg id="Layer_1" xmlns="http://www.w3.org/2000/svg" version="1.1" viewBox="0 0 300 300">
  <!-- Generator: Adobe Illustrator 29.4.0, SVG Export Plug-In . SVG Version: 2.1.0 Build 152)  -->
  <defs>
    <style>
      .st0 {
        fill: #e96f24;
      }
    </style>
  </defs>
  <g>
    <path class="st0" d="M175.3,181v-65.4h-51v92.6c16.8-6.4,34.8-15.2,51-27.2Z"/>
    <path class="st0" d="M103.1,215.4c1.3-.4,2.6-.8,4-1.2v-53.5h-51v65c11.9-1.7,28.6-4.8,47-10.3Z"/>
    <path class="st0" d="M192.6,146.9v19.4c3.4-3.4,6.6-7,9.7-10.8l-9.7-8.7Z"/>
    <polygon class="st0" points="243.5 120.2 243.5 52.6 192.6 52.6 192.6 129.1 243.5 120.2"/>
    <path class="st0" d="M90.8,245.2c-11.2,0-22.8-.8-34.7-2.4v39.1h51v-37.3c-5.4.4-10.8.6-16.3.6Z"/>
    <path class="st0" d="M237.8,181.3c-5.3,6.6-15.8,18-32.1,29.4-4.2,3-8.6,5.8-13.1,8.4v62.8h51v-95.4l-5.8-5.2Z"/>
    <path class="st0" d="M158.7,234.5c-11,3.7-22.5,6.5-34.3,8.3v39.2h51v-54c-5.4,2.4-11,4.6-16.7,6.5Z"/>
  </g>
  <path class="st0" d="M90.8,242.2c-16.9,0-34.6-1.8-52.7-5.4l-23-4.6,23.4-1.4c.3,0,30-1.9,65.6-12.4,32-9.5,75.4-28.1,102.2-63.1l-23.8-21.3,78.5-13.6,1,78.9-24.7-22.2c-4.2,5.6-15.1,18.4-33.5,31.3-22,15.5-59.5,33.9-113.1,33.9Z"/>
</svg>