<?xml version="1.0" encoding="UTF-8"?>
<svg id="Layer_1" xmlns="http://www.w3.org/2000/svg" version="1.1" viewBox="0 0 300 200">
  <!-- Generator: Adobe Illustrator 29.5.0, SVG Export Plug-In . SVG Version: 2.1.0 Build 137)  -->
  <defs>
    <style>
      .st0 {
        fill: #fff;
      }

      .st1 {
        fill: #e96f24;
      }
    </style>
  </defs>
  <g>
    <path class="st0" d="M110.2,22.6c.7,2.3,1.3,4.7,2.1,6.9,4.7,13.2,12.7,23.9,23.6,32.5.6.5,1,.6,1.5-.1.5-.7,1.1-1.3,1.7-1.9,1.1-1.2,1.4-1.2,2.2.2.1.2.2.4.3.6.6,1.3,1,1.6,2.4,1,.9-.4,1.3-.1,1.8.7,2.2,3.9,5.3,6.8,9.5,8.4,1.3.5,2.5,1.1,3.7,1.8,2.1,1.2,3.3,3,3.2,5.6,0,1.5,1.2,2.5,2.6,2.2,3.6-1,4.6-3.5,4.7-6.5,0-.4-.3-.9-.6-1.2-8.9-7.9-17.7-15.9-26.6-23.7-8.5-7.4-17.1-14.6-25.7-21.9-2.1-1.8-4.1-3.5-6.4-5.4,0,.5,0,.7.1,1Z"/>
    <path class="st0" d="M155.7,55.8c2.2,1.9,4.4,3.8,6.6,5.6.6-.8,1.1-1.6,1.6-2.5.7.8,1.3,1.4,1.8,2,.6.6,1.1,1.2,1.7,1.9,13.9-10.7,22.9-24.4,27-41.3-.1-.1-.2-.2-.3-.3-13.1,11.2-26.2,22.4-39.3,33.6.5.4.7.7,1,.9Z"/>
    <path class="st0" d="M126.4,70.4c1.6,2.3,3.9,3.3,6.6,2.4,1.9-.6,3.4-.4,4.9.8.1.1.3.2.4.3,4.7,2.8,9.3,5.7,13.1,9.7,1.3,1.3,2.6,2.6,3.8,4,.9,1,.9,2.2,0,3.1-.8.8-1.7.8-2.7,0-.4-.3-.7-.6-1.1-1-1.7-1.7-3.5-3.5-5.3-5.3-.2.4-.4.6-.6.8-2,3.7-.8,8.8,2.6,11.5,3.3,2.6,8.1,2.5,11.4-.2,4-3.3,4.7-8.9,1.6-13.2-1.4-2-3.2-3.7-4.9-5.4-7.3-7-15.7-12.1-25.6-14.6-2.8-.7-5.5-.7-8.3.9,1.4,2.2,2.6,4.3,4,6.3Z"/>
    <path class="st0" d="M175.1,71.8c1.9.9,3.9,1,5.7-.2,3.1-1.9,4.3-5.1,5.5-8.4-6.5-2.2-12.1.4-17.9,2.6,2,2.5,4,4.6,6.8,5.9Z"/>
  </g>
  <path class="st1" d="M30.2,145.2h19.8v-6.7h-12.4v-6.3h10.5v-6.5h-10.5v-5.8h12.3v-6.6h-19.7v31.9h0Z"/>
  <path class="st1" d="M55.3,145.2l16.3-32.9h.5l15.9,32.9h-8l-2-4.7h-12.9l-2.1,4.7s-7.7,0-7.7,0ZM67.3,135h8.4l-4.1-10-4.3,10Z"/>
  <path class="st1" d="M105.7,145.2v-25.2h10.1v-6.7h-27.9v6.7h10.1v25.2h7.6Z"/>
  <path class="st0" d="M131.7,145.2v-31.9h-7.6v31.9h7.6Z"/>
  <path class="st0" d="M157.7,145.2v-25.2h10.1v-6.7h-27.9v6.7h10.1v25.2h7.6Z"/>
  <path class="st0" d="M175.7,113.3v18.4c0,4.6,1.2,8.2,3.5,10.8,2.4,2.6,5.7,3.8,9.9,3.8s7.5-1.3,9.8-3.9c2.4-2.6,3.6-6.2,3.6-10.8v-18.3h-6.8v18.3c0,2.5-.5,4.4-1.6,5.7s-2.6,2-4.6,2-3.7-.7-4.7-2.1c-1-1.4-1.6-3.5-1.6-6.3v-17.5h-7.5Z"/>
  <path class="st0" d="M214,145.2v-31.9h8.5c6,0,10.6,1.4,14,4.3,3.4,2.9,5.1,6.7,5.1,11.7s-.7,5.6-2,7.9c-1.3,2.3-3.3,4.2-5.9,5.7-1.5.9-3.1,1.5-4.8,1.8-1.7.4-3.9.6-6.4.6h-8.5ZM221.5,138.3h1.7c3.3,0,5.9-.8,7.8-2.4,1.9-1.6,2.8-3.9,2.8-6.7s-.9-5.1-2.8-6.7c-1.9-1.6-4.5-2.5-7.8-2.5h-1.7v18.3Z"/>
  <path class="st0" d="M251.3,145.2h19.8v-6.7h-12.4v-6.3h10.5v-6.5h-10.5v-5.8h12.3v-6.6h-19.7v31.9h0Z"/>
  <g>
    <path class="st0" d="M32.1,162.2c-.5,0-1,.2-1,.7,0,1.3,3.2.9,3.2,3.2s-.9,2.1-2.5,2.1-1.8-.4-2.4-.8l.6-1c.4.3,1.1.7,1.8.7s1.1-.4,1.1-1c0-1.4-3.2-1-3.2-3.2s1-1.8,2.3-1.8,1.7.4,2,.6v1.2c-.5-.3-1.2-.7-1.9-.7Z"/>
    <path class="st0" d="M35.4,161.2h3.8v1.1h-2.4v1.5h1.8v1.1h-1.8v2.1h3.3l-.3,1.1h-4.5v-6.9Z"/>
    <path class="st0" d="M42.4,165.2v2.9h-1.4v-6.9h1.6c1.7,0,2.7.7,2.7,2s-.6,1.4-1.2,1.6c1,.3,1.3,2.3,2.7,2.3l-.3,1.1c-2.6,0-2.1-2.9-4.2-2.9ZM42.4,162.2v2c.9,0,1.6-.2,1.6-1s-.7-1-1.6-1Z"/>
    <path class="st0" d="M51.1,161.2h1.5l-3.2,7.1h-.2l-3.3-7.1h1.5l1.9,4.5,1.9-4.5Z"/>
    <path class="st0" d="M53.4,161.2h1.4v6.9h-1.4v-6.9Z"/>
    <path class="st0" d="M57.7,163.8v4.3h-1.4v-7.1h.2l4.5,4.4v-4.3h1.4v7.1h-.2l-4.5-4.4Z"/>
    <path class="st0" d="M67.2,168.2c-2.2,0-3.7-1.4-3.7-3.6s1.5-3.5,3.7-3.5,1.8.3,2.4.7v1.1c-.7-.4-1.6-.7-2.4-.7-1.4,0-2.4,1-2.4,2.5s.9,2.5,2.3,2.5,1.3-.3,1.4-.3v-2.5h1.4v3c-.2.1-1.3.9-2.8.9Z"/>
    <path class="st0" d="M76.3,168.1h-1.4v-5.8h-1.7l.3-1.1h4.4v1.1h-1.6v5.8Z"/>
    <path class="st0" d="M83.4,164.8h-3.1v3.3h-1.4v-6.9h1.4v2.6h3.1v-2.6h1.4v6.9h-1.4v-3.3Z"/>
    <path class="st0" d="M86.3,161.2h3.8v1.1h-2.4v1.5h1.8v1.1h-1.8v2.1h3.3l-.3,1.1h-4.5v-6.9Z"/>
    <path class="st0" d="M95.7,168.1h-1.4v-6.9h3.9v1.1h-2.5v1.5h1.7v1.1h-1.7v3.2Z"/>
    <path class="st0" d="M104,168.2c-1.6,0-2.9-.9-2.9-2.3s.9-2,2.2-2.2l-1.5-2.3v-.2h3.8l.3,1h-2.2c.6,1,2.2,3.5,2.3,3.6.1-.3.2-.8.1-1.4h1.2c0,.8,0,1.7-.6,2.4l.7,1.1-1.2.2-.4-.6c-.5.4-1.1.6-1.9.6ZM105.3,166.7l-1.4-2.1c-.9,0-1.4.5-1.4,1.3s.6,1.3,1.5,1.3.9-.1,1.2-.4Z"/>
    <path class="st0" d="M112.7,168.1h-1.8v-6.9h1.5c1.6,0,2.8.5,2.8,1.8s-.4,1.1-.9,1.3c.9.2,1.5.7,1.5,1.8,0,1.5-1.2,2.1-3.1,2.1ZM112.3,162.2v1.6c1.2,0,1.6-.2,1.6-.8,0-.6-.4-.8-1.6-.8ZM112.7,164.8h-.4v2.2h.4c1.4,0,1.7-.3,1.7-1.1,0-.6-.3-1.1-1.7-1.1Z"/>
    <path class="st0" d="M119.4,161.2h1.4v6.9h-1.4v-6.9Z"/>
    <path class="st0" d="M123.7,163.8v4.3h-1.4v-7.1h.2l4.5,4.4v-4.3h1.4v7.1h-.2l-4.5-4.4Z"/>
    <path class="st0" d="M131.8,168.1h-1.9v-6.9h1.9c3,0,4.2,1.6,4.2,3.5s-1.2,3.5-4.2,3.5ZM131.9,162.2h-.6v4.8h.6c1.9,0,2.7-1.1,2.7-2.4s-.9-2.4-2.7-2.4Z"/>
    <path class="st0" d="M140.1,168.2c-2,0-2.9-1.2-2.9-3.4v-3.6h1.4v3.6c0,1.5.4,2.3,1.5,2.3s1.5-.8,1.5-2.3v-3.6h1.4v3.6c0,2.2-.9,3.4-2.9,3.4Z"/>
    <path class="st0" d="M146.6,162.2c-.5,0-1,.2-1,.7,0,1.3,3.2.9,3.2,3.2s-.9,2.1-2.5,2.1-1.8-.4-2.4-.8l.6-1c.4.3,1.1.7,1.8.7s1.1-.4,1.1-1c0-1.4-3.2-1-3.2-3.2s1-1.8,2.3-1.8,1.7.4,2,.6v1.2c-.5-.3-1.2-.7-1.9-.7Z"/>
    <path class="st0" d="M152.4,168.1h-1.4v-5.8h-1.7l.3-1.1h4.4v1.1h-1.6v5.8Z"/>
    <path class="st0" d="M156.4,165.2v2.9h-1.4v-6.9h1.6c1.7,0,2.7.7,2.7,2s-.6,1.4-1.2,1.6c1,.3,1.3,2.3,2.7,2.3l-.3,1.1c-2.6,0-2.1-2.9-4.2-2.9ZM156.4,162.2v2c.9,0,1.6-.2,1.6-1s-.7-1-1.6-1Z"/>
    <path class="st0" d="M165,161.2h1.5l-2.7,4.3v2.6h-1.4v-2.6c-.8-1.3-1.9-3.1-2.7-4.4h1.5l1.9,3.2,1.8-3.2Z"/>
    <path class="st0" d="M171,168.1h-1.4v-6.9h3.9v1.1h-2.5v1.5h1.7v1.1h-1.7v3.2Z"/>
    <path class="st0" d="M177.5,168.2c-2,0-3.6-1.3-3.6-3.6s1.6-3.6,3.6-3.6,3.6,1.3,3.6,3.6-1.6,3.6-3.6,3.6ZM177.5,162.2c-1.2,0-2.2.9-2.2,2.4s1,2.5,2.2,2.5,2.2-.9,2.2-2.4-1-2.5-2.2-2.5Z"/>
    <path class="st0" d="M183.7,165.2v2.9h-1.4v-6.9h1.6c1.7,0,2.7.7,2.7,2s-.6,1.4-1.2,1.6c1,.3,1.3,2.3,2.7,2.3l-.3,1.1c-2.6,0-2.1-2.9-4.2-2.9ZM183.7,162.2v2c.9,0,1.6-.2,1.6-1s-.7-1-1.6-1Z"/>
    <path class="st0" d="M194.5,168.2c-2,0-3.6-1.3-3.6-3.6s1.6-3.6,3.6-3.6,3.6,1.3,3.6,3.6-1.6,3.6-3.6,3.6ZM194.5,162.2c-1.2,0-2.2.9-2.2,2.4s1,2.5,2.2,2.5,2.2-.9,2.2-2.4-1-2.5-2.2-2.5Z"/>
    <path class="st0" d="M203.5,161.2h1.5l-3.2,7.1h-.2l-3.3-7.1h1.5l1.9,4.5,1.9-4.5Z"/>
    <path class="st0" d="M205.7,161.2h3.8v1.1h-2.4v1.5h1.8v1.1h-1.8v2.1h3.3l-.3,1.1h-4.5v-6.9Z"/>
    <path class="st0" d="M212.6,165.2v2.9h-1.4v-6.9h1.6c1.7,0,2.7.7,2.7,2s-.6,1.4-1.2,1.6c1,.3,1.3,2.3,2.7,2.3l-.3,1.1c-2.6,0-2.1-2.9-4.2-2.9ZM212.6,162.2v2c.9,0,1.6-.2,1.6-1s-.7-1-1.6-1Z"/>
    <path class="st0" d="M219.9,162.9v-1.1c.2-.2.8-.7,1.8-.7s2.2.8,2.2,2.1-.8,2.4-2.1,3.9h2.4l-.3,1.1h-4.3v-.3c2.9-3.1,2.9-4.1,2.9-4.6s-.3-1-1-1-1.2.3-1.6.7Z"/>
    <path class="st0" d="M229.6,168.1h-1.9v-6.9h1.9c3,0,4.2,1.6,4.2,3.5s-1.2,3.5-4.2,3.5ZM229.8,162.2h-.6v4.8h.6c1.9,0,2.7-1.1,2.7-2.4s-.9-2.4-2.7-2.4Z"/>
    <path class="st0" d="M235.1,161.2h3.8v1.1h-2.4v1.5h1.8v1.1h-1.8v2.1h3.3l-.3,1.1h-4.5v-6.9Z"/>
    <path class="st0" d="M239.8,164.6c0-2.1,1.5-3.5,3.7-3.5s1.8.3,2.3.6v1.2c-.7-.4-1.5-.7-2.2-.7-1.4,0-2.3,1-2.3,2.4s.9,2.5,2.3,2.5,1.5-.4,1.9-.7l.5,1c-.8.5-1.6.8-2.6.8-2.2,0-3.7-1.4-3.7-3.6Z"/>
    <path class="st0" d="M251.9,168.1l-.6-1.3h-3l-.6,1.3h-1.5l3.5-7.1h.2l3.5,7.1h-1.5ZM248.7,165.8h2.2l-1.1-2.4-1.1,2.4Z"/>
    <path class="st0" d="M256,168.1h-1.9v-6.9h1.9c3,0,4.2,1.6,4.2,3.5s-1.2,3.5-4.2,3.5ZM256.1,162.2h-.6v4.8h.6c1.9,0,2.7-1.1,2.7-2.4s-.9-2.4-2.7-2.4Z"/>
    <path class="st0" d="M261.4,161.2h3.8v1.1h-2.4v1.5h1.8v1.1h-1.8v2.1h3.3l-.3,1.1h-4.5v-6.9Z"/>
    <path class="st0" d="M269,162.2c-.5,0-1,.2-1,.7,0,1.3,3.2.9,3.2,3.2s-.9,2.1-2.5,2.1-1.8-.4-2.4-.8l.6-1c.4.3,1.1.7,1.8.7s1.1-.4,1.1-1c0-1.4-3.2-1-3.2-3.2s1-1.8,2.3-1.8,1.7.4,2,.6v1.2c-.5-.3-1.2-.7-1.9-.7Z"/>
  </g>
  <g>
    <path class="st0" d="M278.8,105.6h-1.4v-5.8h-1.7l.3-1.1h4.4v1.1h-1.6v5.8Z"/>
    <path class="st0" d="M286.8,98.6h.2l1.2,7h-1.3l-.7-4-1.8,2.6-1.8-2.6-.7,4h-1.3l1.2-7h.2l2.4,3.6,2.4-3.6Z"/>
  </g>
</svg>